<?xml version="1.0" standalone="no"?>
<!DOCTYPE svg PUBLIC "-//W3C//DTD SVG 20010904//EN"
 "http://www.w3.org/TR/2001/REC-SVG-20010904/DTD/svg10.dtd">
<svg version="1.0" xmlns="http://www.w3.org/2000/svg"
 width="700.000000pt" height="700.000000pt" viewBox="0 0 700.000000 700.000000"
 preserveAspectRatio="xMidYMid meet">
<metadata>
Created by potrace 1.11, written by Peter Selinger 2001-2013
</metadata>
<g transform="translate(0.000000,700.000000) scale(0.100000,-0.100000)"
fill="#000000" stroke="none">
<path d="M2775 6759 c-477 -56 -872 -419 -970 -894 -9 -44 -17 -80 -18 -80 -1
0 -45 -21 -97 -47 -267 -133 -444 -407 -467 -719 -20 -287 126 -604 350 -758
109 -75 262 -134 405 -156 l42 -7 0 -399 0 -399 38 0 39 0 6 -217 c17 -580
112 -973 298 -1230 23 -32 115 -131 205 -220 l164 -163 -47 0 c-57 0 -136 -35
-175 -76 -43 -46 -71 -121 -71 -189 0 -102 52 -187 147 -238 41 -22 45 -22
606 -25 621 -3 621 -3 698 56 36 28 49 32 61 23 45 -32 82 -44 141 -48 55 -4
72 -1 115 21 27 14 50 24 50 23 1 -1 16 -29 35 -62 49 -89 93 -144 163 -203
121 -103 300 -170 467 -175 l85 -2 -1 135 c-1 154 -16 226 -70 334 -19 37 -50
86 -69 109 -47 55 -128 114 -176 128 -21 7 -39 14 -39 15 0 2 18 22 40 46 49
52 104 159 127 248 16 61 24 252 11 265 -11 12 -230 -25 -288 -49 -52 -21 -59
-22 -48 -6 144 195 203 320 258 544 53 215 90 520 90 747 0 64 3 137 6 162 6
44 8 46 43 49 l36 3 3 705 c3 681 -7 1153 -29 1399 -53 577 -538 1021 -1116
1022 l-116 0 -55 50 c-228 208 -564 315 -877 278z m385 -195 c164 -41 300
-118 430 -241 l69 -65 183 -2 c169 -3 190 -5 268 -31 162 -52 272 -117 389
-229 171 -165 267 -366 292 -611 6 -60 13 -392 16 -737 l5 -628 -481 0 -481 0
0 485 0 485 -85 0 -85 0 -2 -482 -3 -483 -262 -3 -263 -2 0 485 0 485 -85 0
-85 0 -2 -482 -3 -483 -387 -3 -388 -2 -2 482 -3 483 -87 3 -88 3 0 -346 0
-345 -23 0 c-48 0 -180 41 -250 77 -102 53 -223 175 -270 274 -101 209 -101
434 0 639 38 77 62 110 128 175 89 90 157 133 272 171 43 14 79 27 80 28 1 1
9 44 17 97 38 237 126 410 287 565 87 83 140 120 247 174 198 99 426 121 652
64z m-180 -2889 l0 -175 -390 0 -390 0 0 175 0 175 390 0 390 0 0 -175z m700
0 l0 -175 -265 0 -265 0 0 175 0 175 265 0 265 0 0 -175z m1110 0 l0 -175
-470 0 -470 0 0 175 0 175 470 0 470 0 0 -175z m-96 -497 c-17 -520 -77 -856
-192 -1083 -119 -237 -449 -521 -821 -708 -103 -51 -105 -52 -196 -52 -89 0
-96 2 -177 43 -47 24 -147 83 -222 133 -291 189 -495 385 -601 573 -117 209
-205 691 -205 1117 l0 119 1209 0 1210 0 -5 -142z m-475 -1682 c-8 -16 -17
-22 -27 -19 -12 5 -11 10 8 25 29 24 32 23 19 -6z"/>
<path d="M2863 2875 c-29 -8 -70 -25 -90 -38 -85 -54 -160 -170 -171 -263 l-5
-44 92 0 c88 0 91 1 91 23 1 60 77 140 146 153 86 16 172 -41 196 -129 l12
-47 89 0 89 0 -7 43 c-33 206 -251 356 -442 302z"/>
<path d="M3920 2875 c-67 -19 -145 -71 -190 -127 -40 -50 -79 -141 -80 -185
l0 -33 90 0 c87 0 90 1 90 23 0 34 41 99 79 124 100 67 226 21 268 -98 l18
-49 88 0 88 0 -7 38 c-40 218 -246 361 -444 307z"/>
<path d="M3530 2195 c-23 -111 18 -233 107 -317 60 -55 90 -72 164 -88 140
-31 304 44 373 170 15 28 26 53 24 54 -1 2 -145 54 -318 116 -173 62 -320 115
-327 117 -7 3 -16 -17 -23 -52z"/>
<path d="M3125 2137 c-170 -57 -318 -106 -328 -110 -16 -6 -16 -10 7 -55 45
-89 125 -152 225 -178 250 -63 494 183 425 429 -3 9 -8 17 -12 17 -4 -1 -146
-47 -317 -103z"/>
</g>
</svg>
